<mxfile host="app.diagrams.net" modified="2022-03-12T22:51:59.110Z" agent="5.0 (X11; Linux x86_64) AppleWebKit/537.36 (KHTML, like Gecko) Chrome/99.0.4844.51 Safari/537.36" etag="xKevDu7J-rLBv61mo0kj" version="17.1.2" type="github">
  <diagram id="JedPeZ5FA-PtTT8BIDki" name="Page-1">
    <mxGraphModel dx="868" dy="424" grid="1" gridSize="10" guides="1" tooltips="1" connect="1" arrows="1" fold="1" page="1" pageScale="1" pageWidth="827" pageHeight="1169" math="0" shadow="0">
      <root>
        <mxCell id="0" />
        <mxCell id="1" parent="0" />
        <mxCell id="byTDUlYWF41H_7iWZY1v-41" value="" style="html=1;dashed=0;whitespace=wrap;shape=mxgraph.dfd.externalEntity" vertex="1" parent="1">
          <mxGeometry x="40" y="40" width="180" height="150" as="geometry" />
        </mxCell>
        <mxCell id="byTDUlYWF41H_7iWZY1v-42" value="Id" style="autosize=1;part=1;resizable=0;strokeColor=inherit;fillColor=inherit;gradientColor=inherit;" vertex="1" parent="byTDUlYWF41H_7iWZY1v-41">
          <mxGeometry width="20" height="20" relative="1" as="geometry">
            <mxPoint x="15" y="15" as="offset" />
          </mxGeometry>
        </mxCell>
        <mxCell id="byTDUlYWF41H_7iWZY1v-1" value="" style="shape=table;html=1;whiteSpace=wrap;startSize=0;container=1;collapsible=0;childLayout=tableLayout;" vertex="1" parent="byTDUlYWF41H_7iWZY1v-41">
          <mxGeometry x="10" y="10" width="170" height="140" as="geometry" />
        </mxCell>
        <mxCell id="byTDUlYWF41H_7iWZY1v-2" value="" style="shape=tableRow;horizontal=0;startSize=0;swimlaneHead=0;swimlaneBody=0;top=0;left=0;bottom=0;right=0;collapsible=0;dropTarget=0;fillColor=none;points=[[0,0.5],[1,0.5]];portConstraint=eastwest;" vertex="1" parent="byTDUlYWF41H_7iWZY1v-1">
          <mxGeometry width="170" height="28" as="geometry" />
        </mxCell>
        <mxCell id="byTDUlYWF41H_7iWZY1v-14" style="shape=partialRectangle;html=1;whiteSpace=wrap;connectable=0;fillColor=#bac8d3;top=0;left=0;bottom=0;right=0;overflow=hidden;strokeColor=#23445d;" vertex="1" parent="byTDUlYWF41H_7iWZY1v-2">
          <mxGeometry width="43" height="28" as="geometry">
            <mxRectangle width="43" height="28" as="alternateBounds" />
          </mxGeometry>
        </mxCell>
        <mxCell id="byTDUlYWF41H_7iWZY1v-3" value="" style="shape=partialRectangle;html=1;whiteSpace=wrap;connectable=0;fillColor=#bac8d3;top=0;left=0;bottom=0;right=0;overflow=hidden;strokeColor=#23445d;" vertex="1" parent="byTDUlYWF41H_7iWZY1v-2">
          <mxGeometry x="43" width="42" height="28" as="geometry">
            <mxRectangle width="42" height="28" as="alternateBounds" />
          </mxGeometry>
        </mxCell>
        <mxCell id="byTDUlYWF41H_7iWZY1v-4" value="" style="shape=partialRectangle;html=1;whiteSpace=wrap;connectable=0;fillColor=#bac8d3;top=0;left=0;bottom=0;right=0;overflow=hidden;strokeColor=#23445d;" vertex="1" parent="byTDUlYWF41H_7iWZY1v-2">
          <mxGeometry x="85" width="45" height="28" as="geometry">
            <mxRectangle width="45" height="28" as="alternateBounds" />
          </mxGeometry>
        </mxCell>
        <mxCell id="byTDUlYWF41H_7iWZY1v-5" value="" style="shape=partialRectangle;html=1;whiteSpace=wrap;connectable=0;fillColor=#bac8d3;top=0;left=0;bottom=0;right=0;overflow=hidden;strokeColor=#23445d;" vertex="1" parent="byTDUlYWF41H_7iWZY1v-2">
          <mxGeometry x="130" width="40" height="28" as="geometry">
            <mxRectangle width="40" height="28" as="alternateBounds" />
          </mxGeometry>
        </mxCell>
        <mxCell id="byTDUlYWF41H_7iWZY1v-6" value="" style="shape=tableRow;horizontal=0;startSize=0;swimlaneHead=0;swimlaneBody=0;top=0;left=0;bottom=0;right=0;collapsible=0;dropTarget=0;fillColor=none;points=[[0,0.5],[1,0.5]];portConstraint=eastwest;" vertex="1" parent="byTDUlYWF41H_7iWZY1v-1">
          <mxGeometry y="28" width="170" height="29" as="geometry" />
        </mxCell>
        <mxCell id="byTDUlYWF41H_7iWZY1v-15" style="shape=partialRectangle;html=1;whiteSpace=wrap;connectable=0;fillColor=#bac8d3;top=0;left=0;bottom=0;right=0;overflow=hidden;strokeColor=#23445d;" vertex="1" parent="byTDUlYWF41H_7iWZY1v-6">
          <mxGeometry width="43" height="29" as="geometry">
            <mxRectangle width="43" height="29" as="alternateBounds" />
          </mxGeometry>
        </mxCell>
        <mxCell id="byTDUlYWF41H_7iWZY1v-7" value="" style="shape=partialRectangle;html=1;whiteSpace=wrap;connectable=0;fillColor=#bac8d3;top=0;left=0;bottom=0;right=0;overflow=hidden;strokeColor=#23445d;" vertex="1" parent="byTDUlYWF41H_7iWZY1v-6">
          <mxGeometry x="43" width="42" height="29" as="geometry">
            <mxRectangle width="42" height="29" as="alternateBounds" />
          </mxGeometry>
        </mxCell>
        <mxCell id="byTDUlYWF41H_7iWZY1v-8" value="" style="shape=partialRectangle;html=1;whiteSpace=wrap;connectable=0;fillColor=#bac8d3;top=0;left=0;bottom=0;right=0;overflow=hidden;strokeColor=#23445d;" vertex="1" parent="byTDUlYWF41H_7iWZY1v-6">
          <mxGeometry x="85" width="45" height="29" as="geometry">
            <mxRectangle width="45" height="29" as="alternateBounds" />
          </mxGeometry>
        </mxCell>
        <mxCell id="byTDUlYWF41H_7iWZY1v-9" value="" style="shape=partialRectangle;html=1;whiteSpace=wrap;connectable=0;fillColor=#bac8d3;top=0;left=0;bottom=0;right=0;overflow=hidden;strokeColor=#23445d;" vertex="1" parent="byTDUlYWF41H_7iWZY1v-6">
          <mxGeometry x="130" width="40" height="29" as="geometry">
            <mxRectangle width="40" height="29" as="alternateBounds" />
          </mxGeometry>
        </mxCell>
        <mxCell id="byTDUlYWF41H_7iWZY1v-10" value="" style="shape=tableRow;horizontal=0;startSize=0;swimlaneHead=0;swimlaneBody=0;top=0;left=0;bottom=0;right=0;collapsible=0;dropTarget=0;fillColor=none;points=[[0,0.5],[1,0.5]];portConstraint=eastwest;" vertex="1" parent="byTDUlYWF41H_7iWZY1v-1">
          <mxGeometry y="57" width="170" height="28" as="geometry" />
        </mxCell>
        <mxCell id="byTDUlYWF41H_7iWZY1v-16" style="shape=partialRectangle;html=1;whiteSpace=wrap;connectable=0;fillColor=#bac8d3;top=0;left=0;bottom=0;right=0;overflow=hidden;strokeColor=#23445d;" vertex="1" parent="byTDUlYWF41H_7iWZY1v-10">
          <mxGeometry width="43" height="28" as="geometry">
            <mxRectangle width="43" height="28" as="alternateBounds" />
          </mxGeometry>
        </mxCell>
        <mxCell id="byTDUlYWF41H_7iWZY1v-11" value="" style="shape=partialRectangle;html=1;whiteSpace=wrap;connectable=0;fillColor=#bac8d3;top=0;left=0;bottom=0;right=0;overflow=hidden;strokeColor=#23445d;" vertex="1" parent="byTDUlYWF41H_7iWZY1v-10">
          <mxGeometry x="43" width="42" height="28" as="geometry">
            <mxRectangle width="42" height="28" as="alternateBounds" />
          </mxGeometry>
        </mxCell>
        <mxCell id="byTDUlYWF41H_7iWZY1v-12" value="" style="shape=partialRectangle;html=1;whiteSpace=wrap;connectable=0;fillColor=#bac8d3;top=0;left=0;bottom=0;right=0;overflow=hidden;strokeColor=#23445d;" vertex="1" parent="byTDUlYWF41H_7iWZY1v-10">
          <mxGeometry x="85" width="45" height="28" as="geometry">
            <mxRectangle width="45" height="28" as="alternateBounds" />
          </mxGeometry>
        </mxCell>
        <mxCell id="byTDUlYWF41H_7iWZY1v-13" value="" style="shape=partialRectangle;html=1;whiteSpace=wrap;connectable=0;fillColor=#bac8d3;top=0;left=0;bottom=0;right=0;overflow=hidden;pointerEvents=1;strokeColor=#23445d;" vertex="1" parent="byTDUlYWF41H_7iWZY1v-10">
          <mxGeometry x="130" width="40" height="28" as="geometry">
            <mxRectangle width="40" height="28" as="alternateBounds" />
          </mxGeometry>
        </mxCell>
        <mxCell id="byTDUlYWF41H_7iWZY1v-17" style="shape=tableRow;horizontal=0;startSize=0;swimlaneHead=0;swimlaneBody=0;top=0;left=0;bottom=0;right=0;collapsible=0;dropTarget=0;fillColor=none;points=[[0,0.5],[1,0.5]];portConstraint=eastwest;" vertex="1" parent="byTDUlYWF41H_7iWZY1v-1">
          <mxGeometry y="85" width="170" height="27" as="geometry" />
        </mxCell>
        <mxCell id="byTDUlYWF41H_7iWZY1v-18" style="shape=partialRectangle;html=1;whiteSpace=wrap;connectable=0;fillColor=#bac8d3;top=0;left=0;bottom=0;right=0;overflow=hidden;strokeColor=#23445d;" vertex="1" parent="byTDUlYWF41H_7iWZY1v-17">
          <mxGeometry width="43" height="27" as="geometry">
            <mxRectangle width="43" height="27" as="alternateBounds" />
          </mxGeometry>
        </mxCell>
        <mxCell id="byTDUlYWF41H_7iWZY1v-19" style="shape=partialRectangle;html=1;whiteSpace=wrap;connectable=0;fillColor=#bac8d3;top=0;left=0;bottom=0;right=0;overflow=hidden;strokeColor=#23445d;" vertex="1" parent="byTDUlYWF41H_7iWZY1v-17">
          <mxGeometry x="43" width="42" height="27" as="geometry">
            <mxRectangle width="42" height="27" as="alternateBounds" />
          </mxGeometry>
        </mxCell>
        <mxCell id="byTDUlYWF41H_7iWZY1v-20" style="shape=partialRectangle;html=1;whiteSpace=wrap;connectable=0;fillColor=#bac8d3;top=0;left=0;bottom=0;right=0;overflow=hidden;strokeColor=#23445d;" vertex="1" parent="byTDUlYWF41H_7iWZY1v-17">
          <mxGeometry x="85" width="45" height="27" as="geometry">
            <mxRectangle width="45" height="27" as="alternateBounds" />
          </mxGeometry>
        </mxCell>
        <mxCell id="byTDUlYWF41H_7iWZY1v-21" style="shape=partialRectangle;html=1;whiteSpace=wrap;connectable=0;fillColor=#bac8d3;top=0;left=0;bottom=0;right=0;overflow=hidden;pointerEvents=1;strokeColor=#23445d;" vertex="1" parent="byTDUlYWF41H_7iWZY1v-17">
          <mxGeometry x="130" width="40" height="27" as="geometry">
            <mxRectangle width="40" height="27" as="alternateBounds" />
          </mxGeometry>
        </mxCell>
        <mxCell id="byTDUlYWF41H_7iWZY1v-22" style="shape=tableRow;horizontal=0;startSize=0;swimlaneHead=0;swimlaneBody=0;top=0;left=0;bottom=0;right=0;collapsible=0;dropTarget=0;fillColor=none;points=[[0,0.5],[1,0.5]];portConstraint=eastwest;" vertex="1" parent="byTDUlYWF41H_7iWZY1v-1">
          <mxGeometry y="112" width="170" height="28" as="geometry" />
        </mxCell>
        <mxCell id="byTDUlYWF41H_7iWZY1v-23" style="shape=partialRectangle;html=1;whiteSpace=wrap;connectable=0;fillColor=#bac8d3;top=0;left=0;bottom=0;right=0;overflow=hidden;strokeColor=#23445d;" vertex="1" parent="byTDUlYWF41H_7iWZY1v-22">
          <mxGeometry width="43" height="28" as="geometry">
            <mxRectangle width="43" height="28" as="alternateBounds" />
          </mxGeometry>
        </mxCell>
        <mxCell id="byTDUlYWF41H_7iWZY1v-24" style="shape=partialRectangle;html=1;whiteSpace=wrap;connectable=0;fillColor=#bac8d3;top=0;left=0;bottom=0;right=0;overflow=hidden;strokeColor=#23445d;" vertex="1" parent="byTDUlYWF41H_7iWZY1v-22">
          <mxGeometry x="43" width="42" height="28" as="geometry">
            <mxRectangle width="42" height="28" as="alternateBounds" />
          </mxGeometry>
        </mxCell>
        <mxCell id="byTDUlYWF41H_7iWZY1v-25" style="shape=partialRectangle;html=1;whiteSpace=wrap;connectable=0;fillColor=#bac8d3;top=0;left=0;bottom=0;right=0;overflow=hidden;strokeColor=#23445d;" vertex="1" parent="byTDUlYWF41H_7iWZY1v-22">
          <mxGeometry x="85" width="45" height="28" as="geometry">
            <mxRectangle width="45" height="28" as="alternateBounds" />
          </mxGeometry>
        </mxCell>
        <mxCell id="byTDUlYWF41H_7iWZY1v-26" style="shape=partialRectangle;html=1;whiteSpace=wrap;connectable=0;fillColor=#bac8d3;top=0;left=0;bottom=0;right=0;overflow=hidden;pointerEvents=1;strokeColor=#23445d;" vertex="1" parent="byTDUlYWF41H_7iWZY1v-22">
          <mxGeometry x="130" width="40" height="28" as="geometry">
            <mxRectangle width="40" height="28" as="alternateBounds" />
          </mxGeometry>
        </mxCell>
        <mxCell id="byTDUlYWF41H_7iWZY1v-44" value="" style="endArrow=classic;startArrow=classic;html=1;rounded=0;" edge="1" parent="1">
          <mxGeometry width="50" height="50" relative="1" as="geometry">
            <mxPoint x="50" y="210" as="sourcePoint" />
            <mxPoint x="230" y="210" as="targetPoint" />
            <Array as="points">
              <mxPoint x="130" y="210" />
            </Array>
          </mxGeometry>
        </mxCell>
        <mxCell id="byTDUlYWF41H_7iWZY1v-45" value="" style="endArrow=classic;startArrow=classic;html=1;rounded=0;" edge="1" parent="1">
          <mxGeometry width="50" height="50" relative="1" as="geometry">
            <mxPoint x="240" y="50" as="sourcePoint" />
            <mxPoint x="240" y="190" as="targetPoint" />
            <Array as="points">
              <mxPoint x="240" y="120" />
            </Array>
          </mxGeometry>
        </mxCell>
        <mxCell id="byTDUlYWF41H_7iWZY1v-46" value="" style="endArrow=classic;startArrow=classic;html=1;rounded=0;" edge="1" parent="1">
          <mxGeometry width="50" height="50" relative="1" as="geometry">
            <mxPoint x="10" y="180" as="sourcePoint" />
            <mxPoint x="50" y="210" as="targetPoint" />
            <Array as="points" />
          </mxGeometry>
        </mxCell>
        <mxCell id="byTDUlYWF41H_7iWZY1v-48" value="" style="shape=flexArrow;endArrow=classic;html=1;rounded=0;fillColor=#647687;strokeColor=#314354;" edge="1" parent="1">
          <mxGeometry width="50" height="50" relative="1" as="geometry">
            <mxPoint x="260" y="120" as="sourcePoint" />
            <mxPoint x="320" y="120" as="targetPoint" />
          </mxGeometry>
        </mxCell>
      </root>
    </mxGraphModel>
  </diagram>
</mxfile>
